<?xml version="1.0" standalone="no"?>
<svg xmlns:xlink="http://www.w3.org/1999/xlink" id="wave" style="transform:rotate(0deg); transition: 0.3s" viewBox="0 0 1440 170" version="1.1" xmlns="http://www.w3.org/2000/svg"><defs><linearGradient id="sw-gradient-0" x1="0" x2="0" y1="1" y2="0"><stop stop-color="rgba(255, 0, 200, 1)" offset="0%"/><stop stop-color="rgba(179, 0, 255, 1)" offset="100%"/></linearGradient></defs><path style="transform:translate(0, 0px); opacity:1" fill="url(#sw-gradient-0)" d="M0,68L30,59.5C60,51,120,34,180,45.3C240,57,300,96,360,110.5C420,125,480,113,540,102C600,91,660,79,720,85C780,91,840,113,900,104.8C960,96,1020,57,1080,34C1140,11,1200,6,1260,22.7C1320,40,1380,79,1440,87.8C1500,96,1560,74,1620,79.3C1680,85,1740,119,1800,121.8C1860,125,1920,96,1980,76.5C2040,57,2100,45,2160,59.5C2220,74,2280,113,2340,124.7C2400,136,2460,119,2520,119C2580,119,2640,136,2700,144.5C2760,153,2820,153,2880,127.5C2940,102,3000,51,3060,28.3C3120,6,3180,11,3240,19.8C3300,28,3360,40,3420,45.3C3480,51,3540,51,3600,45.3C3660,40,3720,28,3780,34C3840,40,3900,62,3960,73.7C4020,85,4080,85,4140,79.3C4200,74,4260,62,4290,56.7L4320,51L4320,170L4290,170C4260,170,4200,170,4140,170C4080,170,4020,170,3960,170C3900,170,3840,170,3780,170C3720,170,3660,170,3600,170C3540,170,3480,170,3420,170C3360,170,3300,170,3240,170C3180,170,3120,170,3060,170C3000,170,2940,170,2880,170C2820,170,2760,170,2700,170C2640,170,2580,170,2520,170C2460,170,2400,170,2340,170C2280,170,2220,170,2160,170C2100,170,2040,170,1980,170C1920,170,1860,170,1800,170C1740,170,1680,170,1620,170C1560,170,1500,170,1440,170C1380,170,1320,170,1260,170C1200,170,1140,170,1080,170C1020,170,960,170,900,170C840,170,780,170,720,170C660,170,600,170,540,170C480,170,420,170,360,170C300,170,240,170,180,170C120,170,60,170,30,170L0,170Z"/></svg>